<mxfile host="app.diagrams.net" modified="2023-03-02T02:14:09.078Z" agent="5.0 (Windows NT 10.0; Win64; x64) AppleWebKit/537.36 (KHTML, like Gecko) Chrome/110.0.0.0 Safari/537.36" etag="sQD8O_EDSZb4t7vauRIe" version="20.8.23" type="github">
  <diagram name="Page-1" id="ZljQfBqEFU4oK5Ygq2_3">
    <mxGraphModel dx="880" dy="452" grid="1" gridSize="10" guides="1" tooltips="1" connect="1" arrows="1" fold="1" page="1" pageScale="1" pageWidth="850" pageHeight="1100" math="0" shadow="0">
      <root>
        <mxCell id="0" />
        <mxCell id="1" parent="0" />
        <mxCell id="CMssODJPf7iIC1tHMfQe-3" value="" style="edgeStyle=orthogonalEdgeStyle;rounded=0;orthogonalLoop=1;jettySize=auto;html=1;" edge="1" parent="1" source="cZ1ES8hI2jLjVbmd1ujM-1" target="cZ1ES8hI2jLjVbmd1ujM-2">
          <mxGeometry relative="1" as="geometry" />
        </mxCell>
        <mxCell id="cZ1ES8hI2jLjVbmd1ujM-1" value="1.&lt;br&gt;USER STORIES" style="rounded=0;whiteSpace=wrap;html=1;labelBackgroundColor=default;fontColor=#808080;" parent="1" vertex="1">
          <mxGeometry x="40" y="120" width="120" height="60" as="geometry" />
        </mxCell>
        <mxCell id="CMssODJPf7iIC1tHMfQe-4" value="" style="edgeStyle=orthogonalEdgeStyle;rounded=0;orthogonalLoop=1;jettySize=auto;html=1;" edge="1" parent="1" source="cZ1ES8hI2jLjVbmd1ujM-2" target="cZ1ES8hI2jLjVbmd1ujM-3">
          <mxGeometry relative="1" as="geometry" />
        </mxCell>
        <mxCell id="cZ1ES8hI2jLjVbmd1ujM-2" value="2.&lt;br&gt;FEATURE" style="rounded=0;whiteSpace=wrap;html=1;" parent="1" vertex="1">
          <mxGeometry x="200" y="120" width="120" height="60" as="geometry" />
        </mxCell>
        <mxCell id="CMssODJPf7iIC1tHMfQe-5" value="" style="edgeStyle=orthogonalEdgeStyle;rounded=0;orthogonalLoop=1;jettySize=auto;html=1;" edge="1" parent="1" source="cZ1ES8hI2jLjVbmd1ujM-3" target="cZ1ES8hI2jLjVbmd1ujM-4">
          <mxGeometry relative="1" as="geometry" />
        </mxCell>
        <mxCell id="cZ1ES8hI2jLjVbmd1ujM-3" value="3.&lt;br&gt;FLOWCHART" style="rounded=0;whiteSpace=wrap;html=1;" parent="1" vertex="1">
          <mxGeometry x="360" y="120" width="120" height="60" as="geometry" />
        </mxCell>
        <mxCell id="CMssODJPf7iIC1tHMfQe-6" value="" style="edgeStyle=orthogonalEdgeStyle;rounded=0;orthogonalLoop=1;jettySize=auto;html=1;" edge="1" parent="1" source="cZ1ES8hI2jLjVbmd1ujM-4" target="cZ1ES8hI2jLjVbmd1ujM-5">
          <mxGeometry relative="1" as="geometry" />
        </mxCell>
        <mxCell id="cZ1ES8hI2jLjVbmd1ujM-4" value="4.&lt;br&gt;ARCHITURE" style="rounded=0;whiteSpace=wrap;html=1;" parent="1" vertex="1">
          <mxGeometry x="520" y="120" width="120" height="60" as="geometry" />
        </mxCell>
        <mxCell id="cZ1ES8hI2jLjVbmd1ujM-5" value="DEVELOPMENT" style="rounded=0;whiteSpace=wrap;html=1;" parent="1" vertex="1">
          <mxGeometry x="680" y="120" width="120" height="60" as="geometry" />
        </mxCell>
        <mxCell id="cZ1ES8hI2jLjVbmd1ujM-6" value="" style="endArrow=none;html=1;rounded=0;fontColor=#808080;" parent="1" edge="1">
          <mxGeometry width="50" height="50" relative="1" as="geometry">
            <mxPoint x="80" y="240" as="sourcePoint" />
            <mxPoint x="660" y="240" as="targetPoint" />
          </mxGeometry>
        </mxCell>
        <mxCell id="cZ1ES8hI2jLjVbmd1ujM-7" value="" style="endArrow=none;html=1;rounded=0;fontColor=#808080;" parent="1" edge="1">
          <mxGeometry width="50" height="50" relative="1" as="geometry">
            <mxPoint x="80" y="240" as="sourcePoint" />
            <mxPoint x="80" y="220" as="targetPoint" />
          </mxGeometry>
        </mxCell>
        <mxCell id="CMssODJPf7iIC1tHMfQe-1" value="" style="endArrow=none;html=1;rounded=0;" edge="1" parent="1">
          <mxGeometry width="50" height="50" relative="1" as="geometry">
            <mxPoint x="660" y="240" as="sourcePoint" />
            <mxPoint x="660" y="220" as="targetPoint" />
          </mxGeometry>
        </mxCell>
      </root>
    </mxGraphModel>
  </diagram>
</mxfile>
